<svg width="95" height="48" viewBox="0 0 95 48" fill="none" xmlns="http://www.w3.org/2000/svg">
<g filter="url(#filter0_d)">
<path d="M14.6719 1.5625C14.5781 2.26562 14.5156 2.98438 14.4844 3.71875C14.4531 4.4375 14.4375 5.1875 14.4375 5.96875C14.4375 7.35938 14.5078 8.78125 14.6484 10.2344C14.7891 11.6719 15 13.1094 15.2812 14.5469C15.5625 15.9844 15.9141 17.3984 16.3359 18.7891C16.7578 20.1641 17.2422 21.4766 17.7891 22.7266C18.3516 23.9766 18.9766 25.1406 19.6641 26.2188C20.3672 27.2969 21.1406 28.25 21.9844 29.0781C22.9062 28.125 23.6484 27.0312 24.2109 25.7969C24.7891 24.5469 25.2344 23.25 25.5469 21.9062C25.875 20.5469 26.0938 19.1797 26.2031 17.8047C26.3125 16.4297 26.375 15.125 26.3906 13.8906H31.5469C31.5469 15.125 31.6016 16.4219 31.7109 17.7812C31.8203 19.1406 32.0312 20.4922 32.3438 21.8359C32.6562 23.1641 33.0938 24.4531 33.6562 25.7031C34.2188 26.9375 34.9531 28.0469 35.8594 29.0312C37.1719 27.6094 38.3047 26 39.2578 24.2031C40.2109 22.3906 41 20.4922 41.625 18.5078C42.25 16.5234 42.7109 14.4922 43.0078 12.4141C43.3047 10.3359 43.4531 8.29688 43.4531 6.29688C43.4531 4.625 43.3594 3.01562 43.1719 1.46875C44.5469 1.53125 45.7734 1.625 46.8516 1.75C47.9453 1.875 48.8906 2 49.6875 2.125C50.5938 2.28125 51.4062 2.4375 52.125 2.59375V8.5C51.6094 8.32812 51.1016 8.19531 50.6016 8.10156C50.1172 7.99219 49.6406 7.875 49.1719 7.75C49.1719 11.1094 48.8438 14.2266 48.1875 17.1016C47.5469 19.9609 46.6484 22.6328 45.4922 25.1172C44.3359 27.6016 42.9531 29.9062 41.3438 32.0312C39.7344 34.1562 37.9688 36.1406 36.0469 37.9844C34.6719 36.6562 33.3906 35.1719 32.2031 33.5312C31.0312 31.8906 29.9531 30.0312 28.9688 27.9531C27.9531 30.0312 26.8438 31.8984 25.6406 33.5547C24.4531 35.2109 23.1719 36.7031 21.7969 38.0312C19.8906 36.1875 18.1484 34.2031 16.5703 32.0781C14.9922 29.9531 13.6406 27.6484 12.5156 25.1641C11.3906 22.6797 10.5156 20.0078 9.89062 17.1484C9.26562 14.2734 8.95312 11.1562 8.95312 7.79688C8.39062 7.92188 7.84375 8.03906 7.3125 8.14844C6.79688 8.24219 6.28125 8.375 5.76562 8.54688V2.59375C5.76562 2.60938 5.96875 2.57812 6.375 2.5C6.79688 2.42188 7.39062 2.32813 8.15625 2.21875C8.9375 2.09375 9.875 1.97656 10.9688 1.86719C12.0625 1.74219 13.2969 1.64062 14.6719 1.5625ZM71.8594 1.28125C74.2656 1.28125 76.5312 1.49219 78.6562 1.91406C80.7812 2.33594 82.6406 2.92188 84.2344 3.67188C85.8281 4.42188 87.0859 5.32812 88.0078 6.39062C88.9297 7.4375 89.3906 8.59375 89.3906 9.85938V28.5156C89.3906 29.7812 88.9297 30.9453 88.0078 32.0078C87.0859 33.0547 85.8281 33.9531 84.2344 34.7031C82.6406 35.4531 80.7812 36.0391 78.6562 36.4609C76.5312 36.8828 74.2656 37.0938 71.8594 37.0938C70.5156 37.0938 69.1406 37.0469 67.7344 36.9531C66.3281 36.8438 64.9609 36.7109 63.6328 36.5547C62.3203 36.3828 61.0859 36.1875 59.9297 35.9688C58.7734 35.75 57.7812 35.5156 56.9531 35.2656V3.10938C57.7812 2.85937 58.7734 2.625 59.9297 2.40625C61.0859 2.1875 62.3203 2 63.6328 1.84375C64.9609 1.67188 66.3281 1.53906 67.7344 1.44531C69.1406 1.33594 70.5156 1.28125 71.8594 1.28125ZM71.9531 6.57812C70.5312 6.57812 69.2969 6.625 68.25 6.71875C67.2031 6.79688 66.3047 6.90625 65.5547 7.04688C64.8047 7.17188 64.1797 7.3125 63.6797 7.46875C63.1953 7.60938 62.7969 7.73438 62.4844 7.84375V30.5312C62.7969 30.6562 63.1953 30.7891 63.6797 30.9297C64.1797 31.0703 64.8047 31.2109 65.5547 31.3516C66.3047 31.4766 67.2031 31.5859 68.25 31.6797C69.2969 31.7578 70.5312 31.7969 71.9531 31.7969C73.7031 31.7969 75.2734 31.6562 76.6641 31.375C78.0703 31.0938 79.25 30.7188 80.2031 30.25C81.1719 29.7812 81.9141 29.2422 82.4297 28.6328C82.9453 28.0078 83.2031 27.3594 83.2031 26.6875V11.6875C83.2031 11.0156 82.9453 10.375 82.4297 9.76562C81.9141 9.14062 81.1719 8.59375 80.2031 8.125C79.25 7.65625 78.0703 7.28125 76.6641 7C75.2734 6.71875 73.7031 6.57812 71.9531 6.57812Z" fill="#34547A"/>
<path d="M14.6719 1.5625L15.6631 1.69466L15.823 0.495483L14.6151 0.56411L14.6719 1.5625ZM14.4844 3.71875L15.4834 3.76219L15.4835 3.76126L14.4844 3.71875ZM14.6484 10.2344L13.6531 10.3307L13.6532 10.3317L14.6484 10.2344ZM16.3359 18.7891L15.379 19.0794L15.3799 19.0824L16.3359 18.7891ZM17.7891 22.7266L16.8729 23.1274L16.8771 23.1369L17.7891 22.7266ZM19.6641 26.2188L18.8209 26.7564L18.8265 26.765L19.6641 26.2188ZM21.9844 29.0781L21.2839 29.7918L22.0028 30.4974L22.7032 29.7734L21.9844 29.0781ZM24.2109 25.7969L23.3033 25.3771L23.301 25.3822L24.2109 25.7969ZM25.5469 21.9062L24.5748 21.6716L24.5729 21.6797L25.5469 21.9062ZM26.3906 13.8906V12.8906H25.4032L25.3907 13.878L26.3906 13.8906ZM31.5469 13.8906H32.5469V12.8906H31.5469V13.8906ZM32.3438 21.8359L31.3697 22.0625L31.3703 22.065L32.3438 21.8359ZM33.6562 25.7031L32.7443 26.1135L32.7463 26.1178L33.6562 25.7031ZM35.8594 29.0312L35.1237 29.7086L35.8584 30.5066L36.5942 29.7095L35.8594 29.0312ZM39.2578 24.2031L40.1412 24.6717L40.1429 24.6686L39.2578 24.2031ZM43.1719 1.46875L43.2173 0.469781L42.037 0.416131L42.1791 1.58908L43.1719 1.46875ZM46.8516 1.75L46.7364 2.74335L46.738 2.74353L46.8516 1.75ZM49.6875 2.125L49.8574 1.13954L49.8499 1.13825L49.8425 1.13708L49.6875 2.125ZM52.125 2.59375H53.125V1.78778L52.3374 1.61657L52.125 2.59375ZM52.125 8.5L51.8088 9.44868L53.125 9.88743V8.5H52.125ZM50.6016 8.10156L50.3813 9.077L50.3992 9.08105L50.4173 9.08443L50.6016 8.10156ZM49.1719 7.75L49.4295 6.78377L48.1719 6.44839V7.75H49.1719ZM48.1875 17.1016L47.2126 16.879L47.2117 16.8829L48.1875 17.1016ZM36.0469 37.9844L35.3521 38.7036L36.0445 39.3724L36.7392 38.706L36.0469 37.9844ZM32.2031 33.5312L31.3894 34.1125L31.3931 34.1176L32.2031 33.5312ZM28.9688 27.9531L29.8725 27.525L28.9828 25.6469L28.0703 27.514L28.9688 27.9531ZM25.6406 33.5547L24.8315 32.967L24.8279 32.972L25.6406 33.5547ZM21.7969 38.0312L21.1016 38.75L21.7964 39.422L22.4916 38.7505L21.7969 38.0312ZM9.89062 17.1484L8.91345 17.3609L8.91369 17.362L9.89062 17.1484ZM8.95312 7.79688H9.95312V6.55026L8.73619 6.82069L8.95312 7.79688ZM7.3125 8.14844L7.49139 9.13231L7.50279 9.13023L7.51415 9.12789L7.3125 8.14844ZM5.76562 8.54688H4.76562V9.9343L6.08185 9.49556L5.76562 8.54688ZM6.375 2.5L6.19291 1.51669L6.18615 1.51799L6.375 2.5ZM8.15625 2.21875L8.29767 3.2087L8.30597 3.20751L8.31424 3.20619L8.15625 2.21875ZM10.9688 1.86719L11.0683 2.86232L11.0823 2.86072L10.9688 1.86719ZM13.6806 1.43034C13.5828 2.16426 13.5178 2.91295 13.4853 3.67624L15.4835 3.76126C15.5135 3.0558 15.5735 2.36699 15.6631 1.69466L13.6806 1.43034ZM13.4853 3.67531C13.4534 4.4097 13.4375 5.17423 13.4375 5.96875H15.4375C15.4375 5.20077 15.4529 4.4653 15.4834 3.76219L13.4853 3.67531ZM13.4375 5.96875C13.4375 7.39309 13.5095 8.84714 13.6531 10.3307L15.6438 10.1381C15.5061 8.71536 15.4375 7.32566 15.4375 5.96875H13.4375ZM13.6532 10.3317C13.797 11.8014 14.0126 13.2705 14.2999 14.7389L16.2626 14.3549C15.9874 12.9482 15.7812 11.5423 15.6437 10.137L13.6532 10.3317ZM14.2999 14.7389C14.5875 16.2093 14.9472 17.6562 15.379 19.0794L17.2929 18.4988C16.8809 17.1407 16.5375 15.7595 16.2626 14.3549L14.2999 14.7389ZM15.3799 19.0824C15.8124 20.492 16.3099 21.8405 16.8729 23.1274L18.7052 22.3257C18.1745 21.1126 17.7032 19.8361 17.292 18.4957L15.3799 19.0824ZM16.8771 23.1369C17.4581 24.4278 18.1057 25.6348 18.8209 26.7564L20.5072 25.6811C19.8475 24.6465 19.2451 23.5253 18.701 22.3162L16.8771 23.1369ZM18.8265 26.765C19.5656 27.8984 20.3842 28.9088 21.2839 29.7918L22.6848 28.3644C21.8971 27.5912 21.1687 26.6953 20.5017 25.6725L18.8265 26.765ZM22.7032 29.7734C23.7061 28.7364 24.5122 27.5472 25.1209 26.2115L23.301 25.3822C22.7846 26.5153 22.1064 27.5136 21.2656 28.3829L22.7032 29.7734ZM25.1186 26.2167C25.7254 24.9046 26.1929 23.5429 26.5209 22.1328L24.5729 21.6797C24.2758 22.9571 23.8527 24.1892 23.3033 25.3771L25.1186 26.2167ZM26.519 22.1409C26.8592 20.7312 27.0864 19.3121 27.2 17.884L25.2063 17.7254C25.1011 19.0473 24.8908 20.3626 24.5748 21.6716L26.519 22.1409ZM27.2 17.884C27.3109 16.4893 27.3746 15.1623 27.3905 13.9033L25.3907 13.878C25.3754 15.0877 25.3141 16.37 25.2063 17.7254L27.2 17.884ZM26.3906 14.8906H31.5469V12.8906H26.3906V14.8906ZM30.5469 13.8906C30.5469 15.1544 30.6029 16.4781 30.7142 17.8615L32.7077 17.701C32.6003 16.3656 32.5469 15.0956 32.5469 13.8906H30.5469ZM30.7142 17.8615C30.8275 19.2707 31.0462 20.6711 31.3697 22.0625L33.3178 21.6094C33.0163 20.3133 32.8131 19.0106 32.7077 17.701L30.7142 17.8615ZM31.3703 22.065C31.6976 23.4557 32.1557 24.8054 32.7443 26.1135L34.5682 25.2928C34.0318 24.1008 33.6149 22.8725 33.3172 21.6069L31.3703 22.065ZM32.7463 26.1178C33.352 27.447 34.1448 28.6453 35.1237 29.7086L36.5951 28.3539C35.7614 27.4484 35.0855 26.428 34.5662 25.2885L32.7463 26.1178ZM36.5942 29.7095C37.9679 28.2213 39.1499 26.5407 40.1412 24.6717L38.3744 23.7345C37.4595 25.4593 36.3758 26.9975 35.1246 28.353L36.5942 29.7095ZM40.1429 24.6686C41.1243 22.8024 41.9362 20.8486 42.5788 18.8082L40.6712 18.2074C40.0638 20.1357 39.2976 21.9789 38.3727 23.7377L40.1429 24.6686ZM42.5788 18.8082C43.2203 16.7715 43.6933 14.687 43.9978 12.5555L42.0179 12.2726C41.7286 14.2974 41.2797 16.2754 40.6712 18.2074L42.5788 18.8082ZM43.9978 12.5555C44.301 10.4328 44.4531 8.34647 44.4531 6.29688H42.4531C42.4531 8.24728 42.3084 10.2391 42.0179 12.2726L43.9978 12.5555ZM44.4531 6.29688C44.4531 4.58767 44.3573 2.93799 44.1646 1.34842L42.1791 1.58908C42.3615 3.09326 42.4531 4.66233 42.4531 6.29688H44.4531ZM43.1265 2.46772C44.484 2.52942 45.6866 2.62163 46.7364 2.74335L46.9667 0.756654C45.8603 0.628368 44.6098 0.533075 43.2173 0.469781L43.1265 2.46772ZM46.738 2.74353C47.8225 2.86748 48.7533 2.99069 49.5325 3.11292L49.8425 1.13708C49.0279 1.00931 48.0681 0.882524 46.9651 0.756467L46.738 2.74353ZM49.5176 3.11046C50.413 3.26483 51.2109 3.41839 51.9126 3.57093L52.3374 1.61657C51.6016 1.45661 50.7745 1.29767 49.8574 1.13954L49.5176 3.11046ZM51.125 2.59375V8.5H53.125V2.59375H51.125ZM52.4412 7.55132C51.8854 7.36603 51.3335 7.22137 50.7859 7.11869L50.4173 9.08443C50.8696 9.16926 51.3334 9.29022 51.8088 9.44868L52.4412 7.55132ZM50.8218 7.12612C50.3497 7.01951 49.8856 6.90538 49.4295 6.78377L48.9142 8.71623C49.3957 8.84462 49.8847 8.96487 50.3813 9.077L50.8218 7.12612ZM48.1719 7.75C48.1719 11.0446 47.85 14.0863 47.2126 16.879L49.1624 17.3241C49.8375 14.3668 50.1719 11.1741 50.1719 7.75H48.1719ZM47.2117 16.8829C46.5857 19.6771 45.7095 22.2803 44.5856 24.6952L46.3988 25.5391C47.5874 22.9853 48.5081 20.2448 49.1633 17.3202L47.2117 16.8829ZM44.5856 24.6952C43.4584 27.1171 42.1119 29.3606 40.5466 31.4275L42.1409 32.635C43.7943 30.4519 45.2135 28.086 46.3988 25.5391L44.5856 24.6952ZM40.5466 31.4275C38.969 33.5105 37.2384 35.4555 35.3546 37.2628L36.7392 38.706C38.6991 36.8257 40.4998 34.802 42.1409 32.635L40.5466 31.4275ZM36.7416 37.2651C35.4113 35.9802 34.1683 34.5407 33.0132 32.9449L31.3931 34.1176C32.613 35.803 33.9324 37.3323 35.3521 38.7036L36.7416 37.2651ZM33.0169 32.95C31.8839 31.3638 30.8349 29.5569 29.8725 27.525L28.065 28.3812C29.0713 30.5056 30.1786 32.4174 31.3894 34.1125L33.0169 32.95ZM28.0703 27.514C27.0769 29.5467 25.9966 31.3632 24.8316 32.967L26.4497 34.1424C27.6909 32.4337 28.8294 30.5158 29.8672 28.3922L28.0703 27.514ZM24.8279 32.972C23.6733 34.5825 22.431 36.0284 21.1021 37.312L22.4916 38.7505C23.9127 37.3779 25.233 35.8394 26.4533 34.1374L24.8279 32.972ZM22.4921 37.3125C20.6249 35.5065 18.9187 33.5631 17.3731 31.4819L15.7675 32.6743C17.3781 34.8431 19.1563 36.8685 21.1016 38.75L22.4921 37.3125ZM17.3731 31.4819C15.8388 29.4158 14.5231 27.173 13.4266 24.7516L11.6047 25.5766C12.7582 28.1239 14.1456 30.4904 15.7675 32.6743L17.3731 31.4819ZM13.4266 24.7516C12.3325 22.3355 11.4787 19.7308 10.8676 16.9349L8.91369 17.362C9.55257 20.2848 10.4487 23.0239 11.6047 25.5766L13.4266 24.7516ZM10.8678 16.936C10.2599 14.1398 9.95312 11.0947 9.95312 7.79688H7.95312C7.95312 11.2178 8.27132 14.4071 8.91345 17.3609L10.8678 16.936ZM8.73619 6.82069C8.17847 6.94463 7.63669 7.06072 7.11085 7.16898L7.51415 9.12789C8.05081 9.01741 8.60278 8.89912 9.17006 8.77306L8.73619 6.82069ZM7.13361 7.16457C6.56975 7.26709 6.00826 7.41191 5.4494 7.59819L6.08185 9.49556C6.55424 9.33809 7.024 9.21729 7.49139 9.13231L7.13361 7.16457ZM6.76562 8.54688V2.59375H4.76562V8.54688H6.76562ZM4.76562 2.59375C4.76562 3.26421 5.33379 3.50054 5.40903 3.52948C5.54845 3.5831 5.66724 3.59207 5.69845 3.59447C5.78433 3.60107 5.85653 3.59557 5.88041 3.59373C5.94518 3.58875 6.01397 3.57903 6.07003 3.5704C6.19077 3.55183 6.3581 3.52157 6.56385 3.48201L6.18615 1.51799C5.98565 1.55655 5.84829 1.58099 5.76591 1.59366C5.72041 1.60066 5.71303 1.6007 5.72701 1.59963C5.73241 1.59921 5.74457 1.59836 5.76142 1.59792C5.77584 1.59755 5.80876 1.59704 5.85184 1.60036C5.87671 1.60227 5.99074 1.61038 6.12698 1.66278C6.19588 1.68928 6.33721 1.75186 6.47333 1.88797C6.63015 2.04479 6.76562 2.28902 6.76562 2.59375H4.76562ZM6.55709 3.48328C6.95882 3.40889 7.53674 3.3174 8.29767 3.2087L8.01483 1.2288C7.24451 1.33885 6.63493 1.43486 6.19291 1.51672L6.55709 3.48328ZM8.31424 3.20619C9.07026 3.08523 9.98717 2.97033 11.0683 2.86222L10.8692 0.87215C9.76283 0.982792 8.80474 1.10227 7.99826 1.23131L8.31424 3.20619ZM11.0823 2.86072C12.1532 2.73833 13.3681 2.63819 14.7286 2.56089L14.6151 0.56411C13.2256 0.64306 11.9718 0.746041 10.8552 0.873655L11.0823 2.86072ZM88.0078 6.39062L87.2525 7.046L87.2573 7.05151L88.0078 6.39062ZM88.0078 32.0078L88.7583 32.6687L88.7631 32.6632L88.0078 32.0078ZM67.7344 36.9531L67.6568 37.9502L67.6679 37.9509L67.7344 36.9531ZM63.6328 36.5547L63.503 37.5463L63.516 37.5478L63.6328 36.5547ZM56.9531 35.2656H55.9531V36.0083L56.6641 36.223L56.9531 35.2656ZM56.9531 3.10938L56.6641 2.15205L55.9531 2.36669V3.10938H56.9531ZM63.6328 1.84375L63.751 2.83679L63.7612 2.83548L63.6328 1.84375ZM67.7344 1.44531L67.8009 2.44316L67.8119 2.4423L67.7344 1.44531ZM68.25 6.71875L68.3244 7.71598L68.3318 7.71543L68.3392 7.71476L68.25 6.71875ZM65.5547 7.04688L65.7191 8.03327L65.729 8.03161L65.739 8.02975L65.5547 7.04688ZM63.6797 7.46875L63.9585 8.4291L63.9683 8.42626L63.978 8.42323L63.6797 7.46875ZM62.4844 7.84375L62.154 6.89989L61.4844 7.13427V7.84375H62.4844ZM62.4844 30.5312H61.4844V31.2083L62.113 31.4597L62.4844 30.5312ZM63.6797 30.9297L63.4009 31.8901L63.4089 31.8923L63.6797 30.9297ZM65.5547 31.3516L65.3704 32.3344L65.3803 32.3363L65.3903 32.338L65.5547 31.3516ZM68.25 31.6797L68.1608 32.6757L68.1682 32.6764L68.1756 32.6769L68.25 31.6797ZM76.6641 31.375L76.4679 30.3944L76.4658 30.3948L76.6641 31.375ZM80.2031 30.25L79.7676 29.3498L79.7618 29.3527L80.2031 30.25ZM82.4297 28.6328L83.1931 29.2788L83.2011 29.2692L82.4297 28.6328ZM82.4297 9.76562L81.6583 10.4021L81.6663 10.4116L82.4297 9.76562ZM80.2031 8.125L79.7618 9.02237L79.7676 9.02516L80.2031 8.125ZM76.6641 7L76.4658 7.98016L76.4679 7.98058L76.6641 7ZM71.8594 2.28125C74.2073 2.28125 76.4072 2.48709 78.4615 2.89492L78.851 0.933205C76.6553 0.49729 74.3239 0.28125 71.8594 0.28125V2.28125ZM78.4615 2.89492C80.5242 3.30442 82.303 3.8682 83.8086 4.57669L84.6602 2.76706C82.9782 1.97555 81.0383 1.36745 78.851 0.933205L78.4615 2.89492ZM83.8086 4.57669C85.3071 5.28188 86.4418 6.11165 87.2525 7.04598L88.7631 5.73527C87.7301 4.5446 86.3492 3.56187 84.6602 2.76706L83.8086 4.57669ZM87.2573 7.05151C88.0361 7.93587 88.3906 8.86257 88.3906 9.85938H90.3906C90.3906 8.32493 89.8233 6.93913 88.7583 5.72974L87.2573 7.05151ZM88.3906 9.85938V28.5156H90.3906V9.85938H88.3906ZM88.3906 28.5156C88.3906 29.5132 88.0354 30.4501 87.2525 31.3525L88.7631 32.6632C89.8239 31.4405 90.3906 30.0493 90.3906 28.5156H88.3906ZM87.2573 31.3469C86.4463 32.268 85.3099 33.0918 83.8086 33.7983L84.6602 35.6079C86.3463 34.8145 87.7256 33.8414 88.7583 32.6687L87.2573 31.3469ZM83.8086 33.7983C82.303 34.5068 80.5242 35.0706 78.4615 35.4801L78.851 37.4418C81.0383 37.0075 82.9782 36.3995 84.6602 35.6079L83.8086 33.7983ZM78.4615 35.4801C76.4072 35.8879 74.2073 36.0938 71.8594 36.0938V38.0938C74.3239 38.0938 76.6553 37.8777 78.851 37.4418L78.4615 35.4801ZM71.8594 36.0938C70.5389 36.0938 69.1861 36.0477 67.8009 35.9553L67.6679 37.9509C69.0952 38.0461 70.4924 38.0938 71.8594 38.0938V36.0938ZM67.8119 35.9561C66.4181 35.8477 65.064 35.7162 63.7497 35.5615L63.516 37.5478C64.8579 37.7057 66.2382 37.8398 67.6568 37.9501L67.8119 35.9561ZM63.7627 35.5632C62.4666 35.3934 61.2511 35.201 60.1156 34.9862L59.7438 36.9513C60.9208 37.174 62.174 37.3722 63.503 37.5462L63.7627 35.5632ZM60.1156 34.9862C58.9827 34.7718 58.0268 34.5452 57.2421 34.3083L56.6641 36.223C57.5357 36.4861 58.5642 36.7282 59.7438 36.9513L60.1156 34.9862ZM57.9531 35.2656V3.10938H55.9531V35.2656H57.9531ZM57.2421 4.0667C58.0268 3.82983 58.9827 3.60316 60.1156 3.38882L59.7438 1.42368C58.5642 1.64684 57.5357 1.88892 56.6641 2.15205L57.2421 4.0667ZM60.1156 3.38882C61.2469 3.17479 62.4585 2.99061 63.751 2.83674L63.5146 0.850762C62.1821 1.00939 60.925 1.20021 59.7438 1.42368L60.1156 3.38882ZM63.7612 2.83548C65.0677 2.6664 66.4142 2.53554 67.8009 2.4431L67.6679 0.447527C66.242 0.542584 64.8542 0.677353 63.5045 0.85202L63.7612 2.83548ZM67.8119 2.4423C69.1936 2.33483 70.5427 2.28125 71.8594 2.28125V0.28125C70.4885 0.28125 69.0876 0.33704 67.6568 0.448324L67.8119 2.4423ZM71.9531 5.57812C70.5111 5.57812 69.2456 5.62559 68.1608 5.72274L68.3392 7.71476C69.3482 7.62441 70.5514 7.57812 71.9531 7.57812V5.57812ZM68.1756 5.72152C67.1045 5.80146 66.1673 5.91458 65.3704 6.064L65.739 8.02975C66.442 7.89792 67.3018 7.79229 68.3244 7.71598L68.1756 5.72152ZM65.3903 6.06048C64.6133 6.18998 63.94 6.33972 63.3814 6.51427L63.978 8.42323C64.4194 8.28528 64.9961 8.15377 65.7191 8.03327L65.3903 6.06048ZM63.4009 6.5084C62.9071 6.65175 62.4899 6.78234 62.154 6.89989L62.8147 8.78761C63.1039 8.68641 63.4835 8.567 63.9585 8.4291L63.4009 6.5084ZM61.4844 7.84375V30.5312H63.4844V7.84375H61.4844ZM62.113 31.4597C62.4667 31.6012 62.8989 31.7443 63.4009 31.89L63.9585 29.9693C63.4917 29.8338 63.127 29.7113 62.8558 29.6028L62.113 31.4597ZM63.4089 31.8923C63.9473 32.0437 64.6034 32.1906 65.3704 32.3344L65.739 30.3687C65.006 30.2312 64.4121 30.0969 63.9504 29.967L63.4089 31.8923ZM65.3903 32.338C66.1726 32.4683 67.0975 32.5805 68.1608 32.6757L68.3392 30.6837C67.3088 30.5914 66.4368 30.4848 65.7191 30.3652L65.3903 32.338ZM68.1756 32.6769C69.2541 32.7574 70.5145 32.7969 71.9531 32.7969V30.7969C70.548 30.7969 69.3396 30.7582 68.3244 30.6825L68.1756 32.6769ZM71.9531 32.7969C73.7549 32.7969 75.3934 32.6522 76.8623 32.3552L76.4658 30.3948C75.1535 30.6603 73.6513 30.7969 71.9531 30.7969V32.7969ZM76.8602 32.3556C78.3239 32.0628 79.5918 31.665 80.6444 31.1473L79.7618 29.3527C78.9082 29.7725 77.8168 30.1247 76.4679 30.3944L76.8602 32.3556ZM80.6387 31.1502C81.6919 30.6406 82.5615 30.0251 83.1931 29.2788L81.6663 27.9869C81.2666 28.4592 80.6519 28.9219 79.7676 29.3498L80.6387 31.1502ZM83.2011 29.2692C83.8328 28.5034 84.2031 27.6369 84.2031 26.6875H82.2031C82.2031 27.0819 82.0578 27.5122 81.6583 27.9964L83.2011 29.2692ZM84.2031 26.6875V11.6875H82.2031V26.6875H84.2031ZM84.2031 11.6875C84.2031 10.7363 83.8314 9.87403 83.1931 9.11968L81.6663 10.4116C82.0593 10.876 82.2031 11.2949 82.2031 11.6875H84.2031ZM83.2011 9.12924C82.5689 8.36303 81.6966 7.73671 80.6387 7.22484L79.7676 9.02516C80.6472 9.45079 81.2592 9.91822 81.6583 10.402L83.2011 9.12924ZM80.6444 7.22765C79.5918 6.70996 78.3239 6.31216 76.8602 6.01942L76.4679 7.98058C77.8168 8.25034 78.9082 8.60254 79.7618 9.02235L80.6444 7.22765ZM76.8623 6.01985C75.3934 5.72276 73.7549 5.57812 71.9531 5.57812V7.57812C73.6513 7.57812 75.1535 7.71474 76.4658 7.98015L76.8623 6.01985Z" fill="black"/>
</g>
<defs>
<filter id="filter0_d" x="0.765625" y="0.28125" width="93.625" height="47.1408" filterUnits="userSpaceOnUse" color-interpolation-filters="sRGB">
<feFlood flood-opacity="0" result="BackgroundImageFix"/>
<feColorMatrix in="SourceAlpha" type="matrix" values="0 0 0 0 0 0 0 0 0 0 0 0 0 0 0 0 0 0 127 0"/>
<feOffset dy="4"/>
<feGaussianBlur stdDeviation="2"/>
<feColorMatrix type="matrix" values="0 0 0 0 0 0 0 0 0 0 0 0 0 0 0 0 0 0 0.25 0"/>
<feBlend mode="normal" in2="BackgroundImageFix" result="effect1_dropShadow"/>
<feBlend mode="normal" in="SourceGraphic" in2="effect1_dropShadow" result="shape"/>
</filter>
</defs>
</svg>
